# xmcd CD database file
#
# Track frame offsets:
#	150
#	11167
#	25615
#	36707
#	52192
#	67620
#	81507
#	90155
#	103355
#	116995
#	130267
#	144542
#	159270
#	179555
#	199115
#	215884
#	241057
#	259937
#	282405
#	304072
#	328440
#
# Disc length: 4595 seconds
#
# Revision: 0
# Processed by: cddbd v1.5.2PL0 Copyright (c) Steve Scherf et al.
# Submitted via: CDex 1.51
#
DISCID=4311f115
DTITLE=Various Artist - Dutch Jazz Masters - Big Bands
DYEAR=1999
DGENRE=Jazz
TTITLE0=Yes I've heard - The Rhythm Harmonists
TTITLE1=Honolulu Blues - Melle Weersma and his Red, White and Blue Aces
TTITLE2=Darktown Strutter's Ball - AVRO Dansorkest
TTITLE3=Chinatown, my Chinatown - AVRO Dansorkest
TTITLE4=Dansstemming - Ernst van 't Hoff and his orchestra
TTITLE5=Bokkenwagen - Dick Willebrandts and his orchestra
TTITLE6=Ratten op de trap - Dick Willebrandts and his orchestra
TTITLE7=Study in brown - The Ramblers
TTITLE8=Undecided - The Skymasters
TTITLE9=Seven eleven - The Ramblers
TTITLE10=Autumn in New York - Van Lion and his big band
TTITLE11=Pop-corn - Van Lion and his big band
TTITLE12=Return - Boy's Big Band
TTITLE13=Some blues - Loosdrecht Festival Big Band
TTITLE14='s Wonderful - Orkest Rogier van Otterloo
TTITLE15=The blues goes on - Frank Grasso Big Band
TTITLE16=One o'clock jump - The Skymasters
TTITLE17=The Quintessence - Peter Ypma plus Eleven
TTITLE18=Blue star - The Dutch Jazz Orchestra
TTITLE19=Saba - New Concert Big Band and Frits Landesbergen
TTITLE20=Miss Bitch - New Cool Collective Big Band and Georgie Fame
EXTD=YEAR: 1999
EXTT0=
EXTT1=
EXTT2=
EXTT3=
EXTT4=
EXTT5=
EXTT6=
EXTT7=
EXTT8=
EXTT9=
EXTT10=
EXTT11=
EXTT12=
EXTT13=
EXTT14=
EXTT15=
EXTT16=
EXTT17=
EXTT18=
EXTT19=
EXTT20=
PLAYORDER=
